<svg width="324" height="381" viewBox="0 0 324 381" fill="none" xmlns="http://www.w3.org/2000/svg">
<path d="M128.445 96.3582C120.16 103.419 109.858 107.686 99.0059 108.552C73.6823 110.573 53.5732 130.682 51.5524 156.006C50.6864 166.858 46.4192 177.16 39.3582 185.445C22.8806 204.781 22.8806 233.219 39.3582 252.555C46.4192 260.84 50.6864 271.142 51.5524 281.994C53.5732 307.318 73.6823 327.427 99.0059 329.448C109.858 330.314 120.16 334.581 128.445 341.642C147.781 358.119 176.219 358.119 195.555 341.642C203.84 334.581 214.142 330.314 224.994 329.448C250.318 327.427 270.427 307.318 272.448 281.994C273.314 271.142 277.581 260.84 284.642 252.555C301.119 233.219 301.119 204.781 284.642 185.445C277.581 177.16 273.314 166.858 272.448 156.006C270.427 130.682 250.318 110.573 224.994 108.552C214.142 107.686 203.84 103.419 195.555 96.3582C176.219 79.8806 147.781 79.8806 128.445 96.3582Z" fill="#53D327"/>
<path d="M121.5 219L148.5 246L209.25 185.25M99.0059 108.552C109.858 107.686 120.16 103.419 128.445 96.3582C147.781 79.8806 176.219 79.8806 195.555 96.3582C203.84 103.419 214.142 107.686 224.994 108.552C250.318 110.573 270.427 130.682 272.448 156.006C273.314 166.858 277.581 177.16 284.642 185.445C301.119 204.781 301.119 233.219 284.642 252.555C277.581 260.84 273.314 271.142 272.448 281.994C270.427 307.318 250.318 327.427 224.994 329.448C214.142 330.314 203.84 334.581 195.555 341.642C176.219 358.119 147.781 358.119 128.445 341.642C120.16 334.581 109.858 330.314 99.0059 329.448C73.6823 327.427 53.5732 307.318 51.5524 281.994C50.6864 271.142 46.4192 260.84 39.3582 252.555C22.8806 233.219 22.8806 204.781 39.3582 185.445C46.4192 177.16 50.6864 166.858 51.5524 156.006C53.5732 130.682 73.6823 110.573 99.0059 108.552Z" stroke="white" stroke-width="10" stroke-linecap="round" stroke-linejoin="round"/>
<path d="M40.625 315.375L46.0443 329.465C46.9256 331.757 47.3662 332.902 48.0515 333.866C48.6588 334.72 49.405 335.466 50.2591 336.074C51.2228 336.759 52.3685 337.199 54.6598 338.081L68.75 343.5L54.6598 348.919C52.3685 349.801 51.2228 350.241 50.2591 350.926C49.405 351.534 48.6588 352.28 48.0515 353.134C47.3662 354.098 46.9256 355.243 46.0443 357.535L40.625 371.625L35.2057 357.535C34.3244 355.243 33.8838 354.098 33.1985 353.134C32.5912 352.28 31.845 351.534 30.9909 350.926C30.0272 350.241 28.8815 349.801 26.5902 348.919L12.5 343.5L26.5902 338.081C28.8815 337.199 30.0272 336.759 30.9909 336.074C31.845 335.466 32.5912 334.72 33.1985 333.866C33.8838 332.902 34.3244 331.757 35.2057 329.465L40.625 315.375Z" fill="#53D327"/>
<path d="M14.0625 374.75V359.125M14.0625 327.875V312.25M6.25 320.062H21.875M6.25 366.938H21.875M40.625 315.375L35.2057 329.465C34.3244 331.757 33.8838 332.902 33.1985 333.866C32.5912 334.72 31.845 335.466 30.9909 336.074C30.0272 336.759 28.8815 337.199 26.5902 338.081L12.5 343.5L26.5902 348.919C28.8815 349.801 30.0272 350.241 30.9909 350.926C31.845 351.534 32.5912 352.28 33.1985 353.134C33.8838 354.098 34.3244 355.243 35.2057 357.535L40.625 371.625L46.0443 357.535C46.9256 355.243 47.3662 354.098 48.0515 353.134C48.6588 352.28 49.405 351.534 50.2591 350.926C51.2228 350.241 52.3685 349.801 54.6598 348.919L68.75 343.5L54.6598 338.081C52.3685 337.199 51.2228 336.759 50.2591 336.074C49.405 335.466 48.6588 334.72 48.0515 333.866C47.3662 332.902 46.9256 331.757 46.0443 329.465L40.625 315.375Z" stroke="#53D327" stroke-width="2" stroke-linecap="round" stroke-linejoin="round"/>
<path d="M259.5 6.25L263.567 22.5187C264.361 25.6933 264.758 27.2806 265.584 28.5722C266.315 29.7146 267.285 30.6848 268.428 31.4159C269.719 32.2424 271.307 32.6392 274.481 33.4328L290.75 37.5L274.481 41.5672C271.307 42.3608 269.719 42.7576 268.428 43.5841C267.285 44.3152 266.315 45.2854 265.584 46.4278C264.758 47.7194 264.361 49.3067 263.567 52.4813L259.5 68.75L255.433 52.4813C254.639 49.3067 254.242 47.7194 253.416 46.4278C252.685 45.2854 251.715 44.3152 250.572 43.5841C249.281 42.7576 247.693 42.3608 244.519 41.5672L228.25 37.5L244.519 33.4328C247.693 32.6392 249.281 32.2424 250.572 31.4159C251.715 30.6848 252.685 29.7146 253.416 28.5722C254.242 27.2806 254.639 25.6933 255.433 22.5187L259.5 6.25Z" fill="#53D327"/>
<path d="M259.5 6.25L263.567 22.5187C264.361 25.6933 264.758 27.2806 265.584 28.5722C266.315 29.7146 267.285 30.6848 268.428 31.4159C269.719 32.2424 271.307 32.6392 274.481 33.4328L290.75 37.5L274.481 41.5672C271.307 42.3608 269.719 42.7576 268.428 43.5841C267.285 44.3152 266.315 45.2854 265.584 46.4278C264.758 47.7194 264.361 49.3067 263.567 52.4813L259.5 68.75L255.433 52.4813C254.639 49.3067 254.242 47.7194 253.416 46.4278C252.685 45.2854 251.715 44.3152 250.572 43.5841C249.281 42.7576 247.693 42.3608 244.519 41.5672L228.25 37.5L244.519 33.4328C247.693 32.6392 249.281 32.2424 250.572 31.4159C251.715 30.6848 252.685 29.7146 253.416 28.5722C254.242 27.2806 254.639 25.6933 255.433 22.5187L259.5 6.25Z" fill="#53D327"/>
<path d="M302.5 117.583L304.832 126.911C305.287 128.731 305.515 129.641 305.988 130.381C306.408 131.036 306.964 131.593 307.619 132.012C308.359 132.486 309.269 132.713 311.089 133.168L320.417 135.5L311.089 137.832C309.269 138.287 308.359 138.514 307.619 138.988C306.964 139.407 306.408 139.964 305.988 140.619C305.515 141.359 305.287 142.269 304.832 144.089L302.5 153.417L300.168 144.089C299.713 142.269 299.486 141.359 299.012 140.619C298.593 139.964 298.037 139.407 297.382 138.988C296.641 138.514 295.731 138.287 293.911 137.832L284.583 135.5L293.911 133.168C295.731 132.713 296.641 132.486 297.382 132.012C298.037 131.593 298.593 131.036 299.012 130.381C299.486 129.641 299.713 128.731 300.168 126.911L302.5 117.583Z" fill="#53D327"/>
<path d="M302.5 117.583L304.832 126.911C305.287 128.731 305.515 129.641 305.988 130.381C306.408 131.036 306.964 131.593 307.619 132.012C308.359 132.486 309.269 132.713 311.089 133.168L320.417 135.5L311.089 137.832C309.269 138.287 308.359 138.514 307.619 138.988C306.964 139.407 306.408 139.964 305.988 140.619C305.515 141.359 305.287 142.269 304.832 144.089L302.5 153.417L300.168 144.089C299.713 142.269 299.486 141.359 299.012 140.619C298.593 139.964 298.037 139.407 297.382 138.988C296.641 138.514 295.731 138.287 293.911 137.832L284.583 135.5L293.911 133.168C295.731 132.713 296.641 132.486 297.382 132.012C298.037 131.593 298.593 131.036 299.012 130.381C299.486 129.641 299.713 128.731 300.168 126.911L302.5 117.583Z" fill="#53D327"/>
<path d="M302.5 117.583L300.168 126.911C299.713 128.731 299.486 129.641 299.012 130.381C298.593 131.036 298.037 131.593 297.382 132.012C296.641 132.486 295.731 132.713 293.911 133.168L284.583 135.5L293.911 137.832C295.731 138.287 296.641 138.514 297.382 138.988C298.037 139.407 298.593 139.964 299.012 140.619C299.486 141.359 299.713 142.269 300.168 144.089L302.5 153.417L304.832 144.089C305.287 142.269 305.515 141.359 305.988 140.619C306.408 139.964 306.964 139.407 307.619 138.988C308.359 138.514 309.269 138.287 311.089 137.832L320.417 135.5L311.089 133.168C309.269 132.713 308.359 132.486 307.619 132.012C306.964 131.593 306.408 131.036 305.988 130.381C305.515 129.641 305.287 128.731 304.832 126.911L302.5 117.583Z" stroke="white" stroke-width="5" stroke-linecap="round" stroke-linejoin="round"/>
</svg>
