<svg width="40" height="40" viewBox="0 0 40 40" fill="none" xmlns="http://www.w3.org/2000/svg">
<path d="M15 30.8334H25M11.6667 25H28.3333M8.33333 3.33337H31.6667C33.5076 3.33337 35 4.99158 35 7.03708V32.963C35 35.0085 33.5076 36.6667 31.6667 36.6667H8.33333C6.49238 36.6667 5 35.0085 5 32.963V7.03708C5 4.99158 6.49238 3.33337 8.33333 3.33337ZM19.996 10.3533C18.8297 9.05471 16.8849 8.7054 15.4236 9.89449C13.9623 11.0836 13.7566 13.0717 14.9041 14.478C16.0517 15.8844 19.996 19.1667 19.996 19.1667C19.996 19.1667 23.9403 15.8844 25.0879 14.478C26.2354 13.0717 26.0548 11.0711 24.5684 9.89449C23.082 8.71791 21.1623 9.05471 19.996 10.3533Z" stroke="black" stroke-width="2" stroke-linecap="round" stroke-linejoin="round"/>
</svg>
