<svg width="40" height="40" viewBox="0 0 40 40" fill="none" xmlns="http://www.w3.org/2000/svg">
<path d="M36.6666 16.6667H3.33325M18.3333 23.3334H9.99992M3.33325 13.6667L3.33325 26.3334C3.33325 28.2002 3.33325 29.1336 3.69656 29.8467C4.01614 30.4739 4.52608 30.9838 5.15328 31.3034C5.86632 31.6667 6.79974 31.6667 8.66658 31.6667L31.3333 31.6667C33.2001 31.6667 34.1335 31.6667 34.8466 31.3034C35.4738 30.9838 35.9837 30.4739 36.3033 29.8467C36.6666 29.1336 36.6666 28.2002 36.6666 26.3334V13.6667C36.6666 11.7999 36.6666 10.8664 36.3033 10.1534C35.9837 9.5262 35.4738 9.01627 34.8466 8.69669C34.1335 8.33338 33.2001 8.33338 31.3333 8.33338L8.66659 8.33337C6.79974 8.33337 5.86632 8.33337 5.15328 8.69669C4.52608 9.01626 4.01614 9.5262 3.69656 10.1534C3.33325 10.8664 3.33325 11.7999 3.33325 13.6667Z" stroke="black" stroke-width="2" stroke-linecap="round" stroke-linejoin="round"/>
</svg>
