<svg width="40" height="40" viewBox="0 0 40 40" fill="none" xmlns="http://www.w3.org/2000/svg">
<path d="M15.1499 15C15.5417 13.8861 16.3151 12.9469 17.3331 12.3486C18.3511 11.7503 19.548 11.5316 20.7118 11.7312C21.8756 11.9308 22.9312 12.5359 23.6917 13.4392C24.4521 14.3426 24.8683 15.4859 24.8665 16.6667C24.8665 20 19.8665 21.6667 19.8665 21.6667M19.9999 28.3334H20.0166M3.33325 14.2046V25.7955C3.33325 26.2031 3.33325 26.4069 3.3793 26.5988C3.42013 26.7688 3.48747 26.9314 3.57885 27.0805C3.68192 27.2487 3.82605 27.3928 4.1143 27.6811L12.3189 35.8857C12.6071 36.1739 12.7513 36.318 12.9194 36.4211C13.0686 36.5125 13.2311 36.5798 13.4012 36.6207C13.593 36.6667 13.7968 36.6667 14.2045 36.6667H25.7953C26.203 36.6667 26.4068 36.6667 26.5986 36.6207C26.7687 36.5798 26.9313 36.5125 27.0804 36.4211C27.2486 36.318 27.3927 36.1739 27.681 35.8857L35.8855 27.6811C36.1738 27.3928 36.3179 27.2487 36.421 27.0805C36.5124 26.9314 36.5797 26.7688 36.6205 26.5988C36.6666 26.4069 36.6666 26.2031 36.6666 25.7955V14.2046C36.6666 13.797 36.6666 13.5931 36.6205 13.4013C36.5797 13.2313 36.5124 13.0687 36.421 12.9196C36.3179 12.7514 36.1738 12.6072 35.8855 12.319L27.681 4.11442C27.3927 3.82617 27.2486 3.68204 27.0804 3.57897C26.9313 3.48759 26.7687 3.42025 26.5986 3.37942C26.4068 3.33337 26.203 3.33337 25.7953 3.33337H14.2045C13.7968 3.33337 13.593 3.33337 13.4012 3.37942C13.2311 3.42025 13.0686 3.48759 12.9194 3.57897C12.7513 3.68204 12.6071 3.82617 12.3189 4.11442L4.1143 12.319C3.82605 12.6072 3.68192 12.7514 3.57885 12.9196C3.48747 13.0687 3.42013 13.2313 3.3793 13.4013C3.33325 13.5931 3.33325 13.797 3.33325 14.2046Z" stroke="black" stroke-width="2" stroke-linecap="round" stroke-linejoin="round"/>
</svg>
