<svg width="40" height="40" viewBox="0 0 40 40" fill="none" xmlns="http://www.w3.org/2000/svg">
<path d="M14.9999 15H15.0166M24.9999 25H25.0166M26.6666 13.3334L13.3333 26.6667M12.2229 6.36453C13.5626 6.25762 14.8344 5.7308 15.8574 4.85907C18.2445 2.82481 21.7554 2.82481 24.1425 4.85907C25.1654 5.7308 26.4372 6.25762 27.777 6.36453C30.9033 6.61402 33.3859 9.09662 33.6354 12.223C33.7423 13.5627 34.2692 14.8346 35.1409 15.8575C37.1752 18.2446 37.1752 21.7555 35.1409 24.1426C34.2692 25.1655 33.7423 26.4374 33.6354 27.7771C33.3859 30.9035 30.9033 33.3861 27.777 33.6356C26.4372 33.7425 25.1654 34.2693 24.1425 35.141C21.7554 37.1753 18.2445 37.1753 15.8574 35.141C14.8344 34.2693 13.5626 33.7425 12.2229 33.6356C9.09649 33.3861 6.6139 30.9035 6.36441 27.7771C6.2575 26.4374 5.73068 25.1655 4.85895 24.1426C2.82469 21.7555 2.82469 18.2446 4.85895 15.8575C5.73068 14.8346 6.2575 13.5627 6.36441 12.223C6.6139 9.09662 9.09649 6.61402 12.2229 6.36453ZM15.8333 15C15.8333 15.4603 15.4602 15.8334 14.9999 15.8334C14.5397 15.8334 14.1666 15.4603 14.1666 15C14.1666 14.5398 14.5397 14.1667 14.9999 14.1667C15.4602 14.1667 15.8333 14.5398 15.8333 15ZM25.8333 25C25.8333 25.4603 25.4602 25.8334 24.9999 25.8334C24.5397 25.8334 24.1666 25.4603 24.1666 25C24.1666 24.5398 24.5397 24.1667 24.9999 24.1667C25.4602 24.1667 25.8333 24.5398 25.8333 25Z" stroke="black" stroke-width="2" stroke-linecap="round" stroke-linejoin="round"/>
</svg>
