<svg width="40" height="40" viewBox="0 0 40 40" fill="none" xmlns="http://www.w3.org/2000/svg">
<path d="M15.5904 35C16.7656 36.0373 18.3094 36.6667 20.0001 36.6667C21.6909 36.6667 23.2346 36.0373 24.4098 35M30.0001 13.3334C30.0001 10.6812 28.9465 8.13767 27.0712 6.26231C25.1958 4.38694 22.6523 3.33337 20.0001 3.33337C17.3479 3.33337 14.8044 4.38694 12.929 6.26231C11.0537 8.13767 10.0001 10.6812 10.0001 13.3334C10.0001 18.4837 8.7009 22.01 7.24955 24.3424C6.02532 26.3098 5.41321 27.2936 5.43565 27.568C5.46051 27.8718 5.52488 27.9877 5.76974 28.1693C5.99088 28.3334 6.98776 28.3334 8.98154 28.3334H31.0187C33.0125 28.3334 34.0093 28.3334 34.2305 28.1693C34.4753 27.9877 34.5397 27.8718 34.5646 27.568C34.587 27.2936 33.9749 26.3098 32.7507 24.3424C31.2993 22.01 30.0001 18.4837 30.0001 13.3334Z" stroke="black" stroke-width="2" stroke-linecap="round" stroke-linejoin="round"/>
</svg>
