<svg width="32" height="32" viewBox="0 0 32 32" fill="none" xmlns="http://www.w3.org/2000/svg">
<path d="M21 31V22C21 21.0666 21 20.5999 20.8183 20.2433C20.6586 19.9297 20.4036 19.6748 20.09 19.515C19.7335 19.3333 19.2668 19.3333 18.3333 19.3333H13.6667C12.7332 19.3333 12.2665 19.3333 11.91 19.515C11.5964 19.6748 11.3414 19.9297 11.1817 20.2433C11 20.5999 11 21.0666 11 22V31M1 7.66667C1 10.4281 3.23858 12.6667 6 12.6667C8.76142 12.6667 11 10.4281 11 7.66667C11 10.4281 13.2386 12.6667 16 12.6667C18.7614 12.6667 21 10.4281 21 7.66667C21 10.4281 23.2386 12.6667 26 12.6667C28.7614 12.6667 31 10.4281 31 7.66667M6.33333 31H25.6667C27.5335 31 28.4669 31 29.18 30.6367C29.8072 30.3171 30.3171 29.8072 30.6367 29.18C31 28.4669 31 27.5335 31 25.6667V6.33333C31 4.46649 31 3.53307 30.6367 2.82003C30.3171 2.19282 29.8072 1.68289 29.18 1.36331C28.4669 1 27.5335 1 25.6667 1H6.33333C4.46649 1 3.53307 1 2.82003 1.36331C2.19282 1.68289 1.68289 2.19282 1.36331 2.82003C1 3.53307 1 4.46649 1 6.33333V25.6667C1 27.5335 1 28.4669 1.36331 29.18C1.68289 29.8072 2.19282 30.3171 2.82003 30.6367C3.53307 31 4.46649 31 6.33333 31Z" stroke="#FF0000" stroke-width="2" stroke-linecap="round" stroke-linejoin="round"/>
</svg>
