<svg width="40" height="40" viewBox="0 0 40 40" fill="none" xmlns="http://www.w3.org/2000/svg">
<path d="M9.2 4.40004L6.6 7.8667C6.08503 8.55334 5.82754 8.89665 5.83351 9.18403C5.83871 9.43411 5.95597 9.66863 6.15292 9.82283C6.37923 10 6.80838 10 7.66667 10H32.3333C33.1916 10 33.6208 10 33.8471 9.82283C34.044 9.66863 34.1613 9.43411 34.1665 9.18403C34.1725 8.89665 33.915 8.55334 33.4 7.8667L30.8 4.40004M9.2 4.40004C9.49333 4.00893 9.64 3.81338 9.82587 3.67233C9.9905 3.54741 10.1769 3.4542 10.3756 3.39745C10.6 3.33337 10.8444 3.33337 11.3333 3.33337H28.6667C29.1556 3.33337 29.4 3.33337 29.6244 3.39745C29.8231 3.4542 30.0095 3.54741 30.1741 3.67233C30.36 3.81338 30.5067 4.00893 30.8 4.40004M9.2 4.40004L6.06667 8.57782C5.6709 9.10551 5.47301 9.36935 5.3325 9.65991C5.20781 9.91774 5.11687 10.1906 5.06192 10.4716C5 10.7884 5 11.1182 5 11.7778L5 31.3334C5 33.2002 5 34.1336 5.36331 34.8467C5.68289 35.4739 6.19282 35.9838 6.82003 36.3034C7.53307 36.6667 8.46649 36.6667 10.3333 36.6667L29.6667 36.6667C31.5335 36.6667 32.4669 36.6667 33.18 36.3034C33.8072 35.9838 34.3171 35.4739 34.6367 34.8467C35 34.1336 35 33.2002 35 31.3334V11.7778C35 11.1182 35 10.7884 34.9381 10.4716C34.8831 10.1906 34.7922 9.91774 34.6675 9.65991C34.527 9.36935 34.3291 9.10551 33.9333 8.57782L30.8 4.40004M26.6667 16.6667C26.6667 18.4348 25.9643 20.1305 24.714 21.3808C23.4638 22.631 21.7681 23.3334 20 23.3334C18.2319 23.3334 16.5362 22.631 15.286 21.3808C14.0357 20.1305 13.3333 18.4348 13.3333 16.6667" stroke="black" stroke-width="2" stroke-linecap="round" stroke-linejoin="round"/>
</svg>
